# AST/ASF file generated using VICON BodyLanguage
# -----------------------------------------------
:version 1.10
:name VICON
:units
  mass 1.0
  length 0.45
  angle deg
:documentation
   .ast/.asf automatically generated from VICON data using
   VICON BodyBuilder and BodyLanguage model FoxedUp or BRILLIANT.MOD
:root
   order TX TY TZ RX RY RZ
   axis XYZ
   position 0 0 0  
   orientation 0 0 0 
:bonedata
  begin
     id 1 
     name lhipjoint
     direction 0.711131 -0.61297 0.344326 
     length 2.29162 
     axis 0 0 0  XYZ
  end
  begin
     id 2 
     name lfemur
     direction 0.34202 -0.939693 0  
     length 6.71424  
     axis 0 0 20  XYZ
    dof rx ry rz
    limits (-160.0 20.0)
           (-70.0 70.0)
           (-60.0 70.0)
  end
  begin
     id 3 
     name ltibia
     direction 0.34202 -0.939693 0   
     length 6.7087   
     axis 0 0 20   XYZ
    dof rx
    limits (-10.0 170.0)
  end
  begin
     id 4 
     name lfoot
     direction 0.0230374 -0.0632947 0.997729   
     length 1.56743   
     axis -90 7.62852e-016 20   XYZ
    dof rx rz
    limits (-45.0 90.0)
           (-70.0 20.0)
  end
  begin
     id 5 
     name ltoes
     direction 1.53585e-011 -4.21885e-011 1   
     length 0.802914   
     axis -90 7.62852e-016 20   XYZ
    dof rx
    limits (-90.0 20.0)
  end
  begin
     id 6 
     name rhipjoint
     direction -0.733192 -0.592884 0.333043   
     length 2.36925  
     axis 0 0 0  XYZ 
  end
  begin
     id 7 
     name rfemur
     direction -0.34202 -0.939693 0   
     length 6.67027   
     axis 0 0 -20   XYZ
    dof rx ry rz
    limits (-160.0 20.0)
           (-70.0 70.0)
           (-70.0 60.0)
  end
  begin
     id 8 
     name rtibia
     direction -0.34202 -0.939693 0   
     length 6.6862   
     axis 0 0 -20   XYZ
    dof rx
    limits (-10.0 170.0)
 end
 begin
     id 9 
     name rfoot
     direction -0.0949739 -0.260939 0.960672   
     length 1.67698  
     axis -90 -7.62852e-016 -20   XYZ
    dof rx rz
    limits (-45.0 90.0)
           (-20.0 70.0)
  end
  begin
     id 10 
     name rtoes
     direction -1.5353e-011 -4.21868e-011 1   
     length 0.846298   
     axis -90 -7.62852e-016 -20   XYZ
    dof rx
    limits (-90.0 20.0)
  end
  begin
     id 11 
     name lowerback
     direction -0.0206828 0.999785 -0.00109866   
     length 2.04382   
     axis 0 0 0   XYZ
    dof rx ry rz
    limits (-20.0 45.0)
           (-30.0 30.0)
           (-30.0 30.0)
  end
  begin
     id 12 
     name upperback
     direction -0.0105003 0.999727 -0.0208904   
     length 2.04538   
     axis 0 0 0   XYZ
    dof rx ry rz
    limits (-20.0 45.0)
           (-30.0 30.0)
           (-30.0 30.0)
  end
  begin
     id 13 
     name thorax
     direction -0.000416255 0.999808 -0.0196023   
     length 2.0399   
     axis 0 0 0   XYZ
    dof rx ry rz
    limits (-20.0 45.0)
           (-30.0 30.0)
           (-30.0 30.0)
  end
  begin
     id 14 
     name lowerneck
     direction 0.0627861 0.989205 0.13241   
     length 1.46207   
     axis 0 0 0   XYZ
    dof rx ry rz
    limits (-20.0 45.0)
           (-30.0 30.0)
           (-30.0 30.0)
  end
  begin
     id 15 
     name upperneck
     direction 0.00627179 0.994526 0.104303   
     length 1.41419   
     axis 0 0 0   XYZ
    dof rx ry rz
    limits (-20.0 45.0)
           (-30.0 30.0)
           (-30.0 30.0)
  end
  begin
     id 16
     name head
     direction -0.00443838 0.999688 0.0245968  
     length 1.50718  
     axis 0 0 0   XYZ
    dof rx ry rz
    limits (-20.0 45.0)
           (-30.0 30.0)
           (-30.0 30.0)
  end
  begin
     id 17 
     name lclavicle
     direction 0.758742 0.650995 -0.0227258  
     length 2.86888  
     axis 0 0 0   XYZ
    dof ry rz
    limits (-20.0 10.0)
           (0.0 20.0)
  end
  begin
     id 18 
     name lhumerus
     direction 1 -4.48962e-011 1.06664e-027   
     length 4.65776   
     axis -180 -30 -90   XYZ
    dof rx ry rz
    limits (-60.0 90.0)
           (-90.0 90.0)
           (-90.0 90.0)
  end
  begin
     id 19
     name lradius
     direction 1 -4.48968e-011 1.40404e-026   
     length 3.55539   
     axis -180 -30 -90   XYZ
    dof rx
    limits (-10.0 170.0)
  end
  begin
     id 20
     name lwrist
     direction 1 -4.48976e-011 3.32647e-026   
     length 1.77769   
     axis -2.20186e-014 90 90   XYZ
    dof ry
    limits (-180.0 0.0)
 end
  begin
     id 21 
     name lhand
     direction 1 -4.48982e-011 6.65293e-026   
     length 0.707264   
     axis -4.24514e-014 90 90   XYZ
    dof rx rz
    limits (-90.0 90.0)
           (-45.0 45.0)
  end
  begin
     id 22 
     name lfingers
     direction 1 -4.48966e-011 1.33059e-025   
     length 0.570215   
     axis -8.49028e-014 90 90   XYZ
    dof rx
    limits (0.0 90.0)
  end
  begin
     id 23
     name lthumb
     direction 0.707107 -6.3493e-011 0.707107   
     length 0.818718   
     axis -90 45 2.85299e-015   XYZ
    dof rx rz
    limits (-45.0 45.0)
           (-45.0 45.0)
  end
  begin
     id 24 
     name rclavicle
     direction -0.870343 0.482028 -0.100759   
     length 3.2251  
     axis 0 0 0   XYZ 
    dof ry rz
    limits (-10.0 20.0)
           (-20.0 0.0)
  end
  begin
     id 25 
     name rhumerus
     direction -1 -4.48974e-011 -9.45849e-028  
     length 4.71925   
     axis -180 30 90   XYZ
    dof rx ry rz
    limits (-90.0 60.0)
           (-90.0 90.0)
           (-90.0 90.0)
  end
  begin
     id 26 
     name rradius
     direction -1 -4.48965e-011 1.17607e-026   
     length 3.5699   
     axis -180 30 90   XYZ
    dof rx
    limits (-10.0 170.0)
  end
  begin
     id 27 
     name rwrist
     direction -1 -4.48968e-011 3.32647e-026   
     length 1.78495   
     axis -2.20186e-014 -90 -90   XYZ
    dof ry
    limits (-180.0 0.0)
  end
  begin
     id 28
     name rhand
     direction -1 -4.48995e-011 6.65293e-026   
     length 0.507757   
     axis -4.24514e-014 -90 -90   XYZ
    dof rx rz
    limits (-90.0 90.0)
           (-45.0 45.0)
  end
  begin
     id 29
     name rfingers
     direction -1 -4.48864e-011 1.33059e-025   
     length 0.409367   
     axis -8.49028e-014 -90 -90   XYZ
    dof rx
    limits (0.0 90.0)
  end
  begin
     id 30
     name rthumb
     direction -0.707107 -6.3494e-011 0.707107   
     length 0.587771   
     axis -90 -45 -2.85299e-015   XYZ
    dof rx rz
    limits (-45.0 45.0)
           (-45.0 45.0)
  end
:hierarchy
  begin
    root lhipjoint rhipjoint lowerback
    lhipjoint lfemur
    lfemur ltibia
    ltibia lfoot
    lfoot ltoes
    rhipjoint rfemur
    rfemur rtibia
    rtibia rfoot
    rfoot rtoes
    lowerback upperback
    upperback thorax
    thorax lowerneck lclavicle rclavicle
    lowerneck upperneck
    upperneck head
    lclavicle lhumerus
    lhumerus lradius
    lradius lwrist
    lwrist lhand lthumb
    lhand lfingers
    rclavicle rhumerus
    rhumerus rradius
    rradius rwrist
    rwrist rhand rthumb
    rhand rfingers
  end

#!OML:ASF E:\Steps\Project 1\Capture day 1\Session 2\Subject.ASF
:FULLY-SPECIFIED
:DEGREES
49
root -1.15538 19.6603 20.7673 -153.797 -1.43505 179.043
lowerback -26.0335 -2.99 -6.51274
upperback -0.015464 -2.31145 0.1111
thorax 14.9159 -1.66462 2.95772
lowerneck -1.80311 -8.92184 -2.27654
upperneck 23.0332 -11.2098 3.38724
head 7.71234 -4.63714 0.754977
rclavicle 7.15625e-015 -1.78906e-014
rhumerus -38.1414 -14.5879 -78.0505
rradius 41.9014
rwrist -6.08915
rhand -3.91412 -64.0632
rfingers 7.12502
rthumb 21.8364 -267.149
lclavicle 7.15625e-015 -1.78906e-014
lhumerus -32.1519 -2.54556 83.2116
lradius 36.7391
lwrist 7.76062
lhand -23.6684 -10.3232
lfingers 7.12502
lthumb 2.7976 19.6382
rfemur -25.7186 5.91993 20.3913
rtibia 8.9235
rfoot -18.4284 -0.552591
rtoes -10.527
lfemur -25.1516 -7.39408 -22.2238
ltibia 8.77798
lfoot -7.55422 0.172891
ltoes -21.8547
50
root -1.16001 19.6611 20.7597 -153.869 -1.43534 179.094
lowerback -26.0272 -3.01464 -6.42641
upperback 0.0177895 -2.36773 0.130176
thorax 14.956 -1.68382 2.90824
lowerneck -1.73443 -8.88632 -2.31505
upperneck 23.038 -11.1412 3.32864
head 7.69829 -4.61281 0.750762
rclavicle -1.40143e-014 -2.18663e-014
rhumerus -38.1777 -14.6192 -77.9699
rradius 41.5851
rwrist -6.18708
rhand -3.92251 -63.8956
rfingers 7.12502
rthumb 21.8284 -267.315
lclavicle -1.40143e-014 -2.18663e-014
lhumerus -32.3162 -2.27221 83.1335
lradius 36.3951
lwrist 7.62301
lhand -23.7854 -10.2174
lfingers 7.12502
lthumb 2.68458 19.7454
rfemur -25.5732 5.80209 20.4682
rtibia 8.84274
rfoot -18.4871 -0.412938
rtoes -10.5476
lfemur -25.0708 -7.51425 -22.1544
ltibia 8.83341
lfoot -7.65336 0.352733
ltoes -22.6621
51
root -1.16509 19.6604 20.7605 -153.805 -1.42351 179.131
lowerback -26.0985 -2.99554 -6.34871
upperback 0.0345522 -2.35936 0.129123
thorax 15.0119 -1.67527 2.86342
lowerneck -1.69888 -8.9548 -2.34218
upperneck 22.9812 -11.2499 3.38466
head 7.68195 -4.66726 0.766316
rclavicle -8.44835e-015 -4.37326e-015
rhumerus -38.2076 -14.6515 -77.9313
rradius 41.381
rwrist -6.29491
rhand -3.94098 -64.0462
rfingers 7.12502
rthumb 21.8106 -267.163
lclavicle -8.44835e-015 -4.37326e-015
lhumerus -32.3407 -2.15907 83.0922
lradius 35.9787
lwrist 7.53437
lhand -24.0172 -10.0289
lfingers 7.12502
lthumb 2.46076 19.9366
rfemur -25.7024 5.69193 20.5159
rtibia 8.93763
rfoot -18.5401 -0.271204
rtoes -10.6754
lfemur -25.2126 -7.53416 -22.1263
ltibia 8.9937
lfoot -7.71258 0.468554
ltoes -23.2871
52
root -1.16937 19.6589 20.7594 -153.82 -1.44305 179.071
lowerback -26.185 -3.01699 -6.41459
upperback 0.168323 -2.34432 0.138187
thorax 15.2251 -1.676 2.91342
lowerneck -1.80056 -9.00809 -2.3229
upperneck 22.7862 -11.3609 3.41731
head 7.63943 -4.73367 0.761216
rclavicle -5.66536e-015 -7.15625e-015
rhumerus -38.1852 -14.8576 -77.8235
rradius 41.3332
rwrist -6.23473
rhand -3.7502 -64.3789
rfingers 7.12502
rthumb 21.9938 -266.852
lclavicle -5.66536e-015 -7.15625e-015
lhumerus -32.097 -2.07557 83.117
lradius 35.4803
lwrist 7.52574
lhand -24.2623 -9.77435
lfingers 7.12502
lthumb 2.22399 20.1938
rfemur -25.7128 5.5622 20.4657
rtibia 9.01207
rfoot -18.5315 -0.173851
rtoes -10.4856
lfemur -25.2194 -7.49659 -22.2438
ltibia 9.07931
lfoot -7.68926 0.333986
ltoes -22.6533
53
root -1.17085 19.6585 20.7567 -153.857 -1.47779 179.013
lowerback -25.9564 -3.01392 -6.36976
upperback 0.127063 -2.3635 0.0610452
thorax 15.0425 -1.67323 2.79713
lowerneck -1.83827 -9.03745 -2.25469
upperneck 22.7874 -11.4194 3.45445
head 7.64653 -4.75295 0.756001
rclavicle 1.87852e-014 2.54444e-014
rhumerus -38.532 -15.1045 -77.7425
rradius 41.2916
rwrist -6.20649
rhand -3.62665 -64.0204
rfingers 7.12502
rthumb 22.1124 -267.224
lclavicle 1.87852e-014 2.54444e-014
lhumerus -32.2495 -2.13676 82.9895
lradius 35.115
lwrist 7.82492
lhand -24.1556 -9.92977
lfingers 7.12502
lthumb 2.3271 20.0373
rfemur -25.6455 5.50597 20.4152
rtibia 9.00061
rfoot -18.5112 -0.180224
rtoes -10.9249
lfemur -25.1881 -7.5073 -22.3295
ltibia 9.12067
lfoot -7.69996 0.229667
ltoes -22.1798
54
root -1.17194 19.6591 20.7562 -153.833 -1.47966 179.044
lowerback -26.095 -3.0465 -6.42567
upperback 0.253994 -2.37269 0.138533
thorax 15.2825 -1.6881 2.91047
lowerneck -1.8751 -9.09661 -2.30483
upperneck 22.7442 -11.5184 3.51813
head 7.64926 -4.8043 0.774535
rclavicle -7.15625e-015 -3.97569e-015
rhumerus -38.4307 -15.2569 -77.5675
rradius 41.0544
rwrist -6.37659
rhand -3.81246 -63.8928
rfingers 7.12502
rthumb 21.934 -267.331
lclavicle -7.15625e-015 -3.97569e-015
lhumerus -32.1478 -2.10181 83.054
lradius 34.7383
lwrist 8.1246
lhand -23.7816 -10.2094
lfingers 7.12502
lthumb 2.68827 19.7534
rfemur -25.6747 5.4966 20.452
rtibia 9.00284
rfoot -18.5318 -0.164897
rtoes -11.3019
lfemur -25.2379 -7.56113 -22.2748
ltibia 9.1671
lfoot -7.72096 0.299083
ltoes -22.6439
55
root -1.17298 19.66 20.7568 -153.798 -1.49289 179.077
lowerback -26.0663 -3.04034 -6.34986
upperback 0.252165 -2.38722 0.120049
thorax 15.2612 -1.68705 2.84047
lowerneck -1.84026 -9.15463 -2.27466
upperneck 22.8509 -11.592 3.52477
head 7.67993 -4.82861 0.766824
rclavicle -9.74045e-015 1.66979e-014
rhumerus -38.5452 -15.5078 -77.4808
rradius 40.8354
rwrist -6.28498
rhand -3.79123 -64.3665
rfingers 7.12502
rthumb 21.9544 -266.859
lclavicle -9.74045e-015 1.66979e-014
lhumerus -32.2756 -2.11398 82.963
lradius 34.3775
lwrist 8.13853
lhand -23.6359 -10.1891
lfingers 7.12502
lthumb 2.82902 19.7719
rfemur -25.7491 5.60403 20.4593
rtibia 9.07125
rfoot -18.6161 -0.250062
rtoes -11.1513
lfemur -25.3122 -7.55229 -22.2219
ltibia 9.21813
lfoot -7.69976 0.284233
ltoes -22.7759
